/* XPM */
static const char *li[]={
"32 32 2 1",
"# c #ff0000",
". c #ffff00",
"................................",
"................................",
"................................",
"................................",
".............##.................",
".............##.................",
".............##.................",
".............########...........",
"........########................",
".........#..####................",
"...........####.##..............",
"...........####..###............",
"..........##.##...####..........",
".........##...#....#######......",
"........##....#####..##.........",
"......##..###...##..............",
"...............#................",
".............##....#####........",
"...........##############.......",
".....########.##................",
".....###......##................",
"..............##................",
"..............##................",
"..............##................",
"............####................",
".............###................",
"..............#.................",
"................................",
"................................",
"................................",
"................................",
"................................"};
