/* XPM */
static const char *qq[]={
"32 32 481 2",
"e4 c #183c6a",
"eP c #202c29",
"fE c #202c31",
"fr c #292831",
"eZ c #292c31",
"fd c #292c39",
"fl c #293031",
"fx c #293039",
"fe c #293431",
"fm c #293439",
"e6 c #293441",
"ez c #293839",
"eR c #293841",
"e5 c #29384a",
"fw c #293c4a",
"fc c #312c31",
"e8 c #313031",
"eY c #313039",
"fq c #313431",
"eb c #313439",
"ea c #313441",
"fy c #31344a",
"dQ c #313839",
"e7 c #313841",
"eW c #31384a",
"eQ c #313c4a",
"fA c #313c52",
"fB c #314052",
"fv c #31405a",
"eO c #31444a",
"fh c #314452",
"fk c #31445a",
"fp c #314462",
"fo c #31485a",
"fz c #314c62",
"fu c #314c6a",
"ft c #31597b",
"eA c #393839",
"ey c #393841",
"fD c #393c39",
"dP c #393c4a",
"d9 c #393c5a",
"fn c #39405a",
"fa c #394452",
"e9 c #39445a",
"ex c #39446a",
"dr c #394c52",
"ev c #394c6a",
"fi c #395062",
"f. c #395073",
"dJ c #39507b",
"fj c #39556a",
"et c #39597b",
"eT c #395983",
"eB c #414039",
"e# c #41404a",
"eS c #414c62",
"eJ c #415052",
"d8 c #415073",
".4 c #415562",
"ew c #415573",
"d7 c #415983",
"do c #4a4041",
"c6 c #4a444a",
"em c #4a4c41",
"e0 c #4a5052",
".L c #4a5062",
".M c #4a506a",
".T c #4a5073",
".S c #4a5562",
"#h c #4a556a",
".E c #4a596a",
".N c #4a5d6a",
"dj c #4a5d8b",
"f# c #4a6173",
".q c #4a618b",
"eu c #4a699c",
"d6 c #4a79b4",
"dO c #524441",
"dp c #52484a",
"cK c #524c52",
"e. c #524c5a",
"cL c #525052",
".C c #525562",
".D c #52556a",
"#C c #525962",
".s c #52596a",
".0 c #525973",
"el c #525d5a",
".r c #525d6a",
".F c #525d73",
".R c #525d7b",
"a. c #526173",
".O c #52617b",
".t c #526183",
"aO c #52697b",
".v c #52698b",
"#1 c #526d7b",
"dN c #5a484a",
"dM c #5a4c4a",
"dq c #5a4c52",
"eX c #5a504a",
"cM c #5a505a",
"d5 c #5a554a",
"#c c #5a557b",
"en c #5a594a",
"d3 c #5a5952",
".5 c #5a596a",
".Z c #5a5973",
"cJ c #5a5d62",
"#9 c #5a5d6a",
"#y c #5a5d73",
"ap c #5a616a",
"d4 c #5a6562",
"aB c #5a656a",
"ao c #5a6573",
"#F c #5a6583",
"#8 c #5a6973",
"a# c #5a697b",
".u c #5a698b",
"fg c #5a757b",
".3 c #5a7d9c",
"dI c #5a85bd",
"cm c #62555a",
"bt c #625562",
"fb c #625952",
"dn c #62595a",
"bq c #625962",
"aZ c #62596a",
".W c #625d6a",
".X c #625d73",
"co c #62616a",
".Y c #626173",
"eI c #62655a",
"#N c #62657b",
"e1 c #62695a",
"#T c #626973",
"aA c #626d73",
"fC c #6a5539",
"eV c #6a555a",
"bs c #6a5562",
"b9 c #6a595a",
"bR c #6a5962",
"cn c #6a5d62",
"#i c #6a5d6a",
"az c #6a5d7b",
"#G c #6a6173",
"eC c #6a6552",
"eo c #6a655a",
".U c #6a656a",
"#I c #6a657b",
"c7 c #6a6952",
"dz c #6a695a",
"#7 c #6a6d83",
"aP c #6a7d94",
".1 c #6a7da4",
"aC c #6a8dac",
"b. c #735d62",
"br c #735d6a",
"a9 c #73616a",
"#5 c #736173",
"bS c #73656a",
"#Q c #736573",
"a8 c #73657b",
"cN c #73695a",
"#S c #736973",
"#0 c #73717b",
"dw c #73795a",
"dy c #737973",
"#z c #738194",
"#X c #738dac",
"aN c #7b5d7b",
"bu c #7b616a",
"bv c #7b656a",
"#. c #7b6573",
"dH c #7b6962",
".V c #7b6973",
".9 c #7b697b",
"aY c #7b6d73",
"#b c #7b6d7b",
"dC c #7b715a",
"dA c #7b7162",
"#U c #7b717b",
"#o c #7b7183",
"dU c #7b755a",
"dB c #7b7562",
"#J c #7b7583",
"eD c #7b7952",
"#M c #7b7d94",
"dG c #7b8173",
"ei c #7b8d83",
"aR c #7b8d9c",
"#2 c #7b95b4",
"#R c #836973",
"b# c #83697b",
"bT c #836d6a",
".6 c #836d73",
"## c #836d7b",
"#u c #836d83",
"dF c #83715a",
"dD c #837162",
"#a c #83717b",
"#n c #837183",
"dE c #837562",
"#m c #83757b",
"#x c #837583",
"c5 c #83797b",
"dK c #837d8b",
"eE c #83816a",
"#P c #838194",
"eF c #838562",
"dx c #83856a",
"e2 c #838d73",
"eh c #83918b",
"#K c #8391a4",
"ej c #839994",
"eN c #83aed5",
"#v c #8b717b",
"#H c #8b7183",
"aw c #8b757b",
"an c #8b7583",
"da c #8b7962",
"di c #8b796a",
"dm c #8b7d83",
"dv c #8b8162",
"de c #8b856a",
"cS c #8b8573",
"dV c #8b896a",
"ee c #8b8973",
"eG c #8b917b",
"ef c #8b9183",
"cU c #8b9583",
"#V c #8b95a4",
"eL c #8b997b",
"aQ c #8b9dac",
"#w c #947983",
"bQ c #947d83",
"al c #947d8b",
"aM c #94818b",
"#Y c #948994",
"a6 c #9491a4",
"ed c #94957b",
"dT c #94958b",
"eg c #949994",
"aS c #94a5b4",
"aI c #9c7d8b",
".8 c #9c8994",
"db c #9c8d6a",
"dS c #9c8d73",
"cC c #9c8d83",
"#l c #9c8d94",
"b4 c #9c9583",
"du c #9c958b",
"ec c #9ca19c",
"cv c #9caa94",
"a4 c #a48994",
"dt c #a49173",
"dR c #a4917b",
"#t c #a4919c",
"bP c #a491a4",
"cu c #a49573",
"d# c #a49983",
"c4 c #a4a19c",
"dL c #a4a1a4",
"e3 c #a4b6b4",
"aD c #a4c2cd",
".K c #a4c2d5",
"at c #a4cad5",
"fs c #a4d2de",
"aV c #ac899c",
"#6 c #ac9194",
"aK c #ac919c",
"cR c #ac9573",
"ds c #ac957b",
"av c #ac95a4",
"cc c #ac997b",
"a7 c #ac99a4",
"cl c #ac9da4",
"dW c #acaa83",
"cb c #acaa94",
"cI c #acaeac",
"ek c #acbaac",
"c1 c #b49973",
"d. c #b4997b",
"cQ c #b49d7b",
"b0 c #b4a17b",
"bD c #b4a183",
"a5 c #b4a1ac",
"ay c #b4a1b4",
"am c #b4a5b4",
"dY c #b4aa83",
"dX c #b4aa8b",
"bg c #b4aa9c",
"dc c #b4ae83",
"d1 c #b4b294",
"bZ c #b4b2a4",
"eq c #b4b694",
"bC c #b4baa4",
"bf c #b4beac",
"bk c #b4bebd",
"as c #b4c2c5",
"#p c #b4cad5",
"ac c #b4ced5",
"aE c #b4d2de",
"aa c #b4d6de",
".B c #b4d6f6",
"aG c #b4dae6",
"eK c #b4eeff",
"c9 c #bd9d7b",
"cP c #bda17b",
"ct c #bda183",
"dZ c #bdae83",
"eU c #bdaeac",
"aX c #bdaebd",
"c0 c #bdb29c",
"#k c #bdb2bd",
"eM c #bdbea4",
"#E c #bdc2d5",
"Qt c #bdd2c5",
".m c #bdd2cd",
".x c #bdd6cd",
"ab c #bdd6de",
"c8 c #c5a57b",
"cs c #c5a583",
"cr c #c5aa83",
"cO c #c5ae8b",
"ca c #c5ae94",
"d0 c #c5b283",
"bY c #c5b294",
".7 c #c5b2b4",
"df c #c5b68b",
"bA c #c5b694",
"bd c #c5baac",
"cH c #c5babd",
"dd c #c5bea4",
"a3 c #c5becd",
"dl c #c5c2c5",
"cT c #c5c69c",
".I c #c5dad5",
".# c #c5ded5",
".P c #c5dede",
"aT c #c5dee6",
"ff c #c5e2de",
"a2 c #c5e2e6",
"cq c #cdae8b",
"c2 c #cdb28b",
"bX c #cdb294",
"dg c #cdb68b",
"bB c #cdb694",
"be c #cdb6a4",
"cZ c #cdba8b",
"d2 c #cdba94",
"bz c #cdba9c",
"#j c #cdbabd",
"dh c #cdbe94",
"#r c #cdbec5",
"bc c #cdc2b4",
"#s c #cdc2c5",
"#Z c #cdc2cd",
"ak c #cdc2d5",
"cd c #cdc69c",
"ep c #cdc6a4",
".n c #cdded5",
"#e c #cddede",
"aF c #cddee6",
".y c #cde2de",
"#L c #cde2e6",
"a1 c #cde6e6",
"ai c #cde6ee",
"aq c #cdeaee",
"au c #d5b2c5",
"bW c #d5b694",
"c. c #d5b69c",
"bV c #d5ba94",
"c# c #d5ba9c",
"cj c #d5be8b",
"by c #d5be9c",
"cp c #d5bea4",
"bx c #d5c29c",
"cV c #d5c69c",
"bb c #d5c6bd",
"ba c #d5c6c5",
"bw c #d5caa4",
"bp c #d5cacd",
"bO c #d5cad5",
"#3 c #d5d2de",
"es c #d5d6b4",
"eH c #d5ded5",
".a c #d5e6de",
".J c #d5e6e6",
"ar c #d5e6ee",
".o c #d5eae6",
"ag c #d5eaee",
"af c #d5eaf6",
".p c #d5f2ff",
"aU c #d5f6ff",
"cD c #debe94",
"bU c #dec29c",
"cY c #dec69c",
"cA c #deca9c",
"b8 c #decacd",
"cw c #decea4",
"cB c #ded2a4",
"cW c #ded6a4",
"er c #ded6bd",
"bJ c #dee2d5",
"c3 c #dee2de",
"#A c #deeaee",
"a0 c #deeaf6",
".b c #deeeee",
".l c #deeef6",
"#f c #def2ee",
".w c #def2f6",
"ae c #def2ff",
"ad c #def6ff",
"#B c #deffff",
"bK c #e6c6a4",
"cE c #e6ca9c",
"cz c #e6ceac",
"ck c #e6d2a4",
"cX c #e6d2ac",
"cy c #e6daac",
"cx c #e6dab4",
"bl c #e6dac5",
"ax c #e6dae6",
"ci c #e6ded5",
"dk c #e6dee6",
"aW c #e6e2ee",
"ce c #e6e6bd",
"cG c #e6e6e6",
"#4 c #e6e6f6",
"ah c #e6eaee",
".z c #e6eeee",
"#d c #e6eef6",
"bh c #e6f2ee",
".k c #e6f2f6",
".Q c #e6f2ff",
".c c #e6f6f6",
"#W c #e6f6ff",
".G c #e6faff",
"#q c #e6ffff",
"b5 c #eed2ac",
"bL c #eed6ac",
"ch c #eedaac",
"b7 c #eedabd",
"bM c #eedac5",
"cg c #eedeac",
"b6 c #eedeb4",
"bI c #eedebd",
"cf c #eee2b4",
"bG c #eee2bd",
"bm c #eee2c5",
"b1 c #eee6bd",
"bF c #eee6c5",
"bE c #eeeac5",
"bi c #eeeae6",
"aj c #eeeaf6",
"bj c #eeeee6",
".H c #eef6f6",
".j c #eef6ff",
".d c #eefaf6",
".i c #eefaff",
".g c #eefff6",
"aH c #eeffff",
"bH c #f6e2bd",
"bn c #f6e2c5",
"b3 c #f6e6bd",
"b2 c #f6e6c5",
"aJ c #f6eeff",
"#O c #f6f2ff",
".2 c #f6f6ff",
"#g c #f6faf6",
".h c #f6faff",
".e c #f6ffff",
"#D c #fff2f6",
"aL c #fff2ff",
"bN c #fff6f6",
"bo c #fffaee",
"cF c #fffaf6",
".A c #fffaff",
".f c #ffffff",
"Qt.#.a.b.c.d.d.e.e.e.e.f.f.e.f.e.g.e.e.e.g.e.h.h.i.j.j.c.k.k.b.l",
".m.n.o.b.c.d.h.e.e.e.f.f.f.e.p.q.r.s.s.t.u.v.e.i.i.i.j.j.c.c.w.l",
".x.y.o.z.c.d.i.e.e.h.f.f.A.B.s.C.D.s.D.E.s.F.t.k.i.G.H.c.c.k.b.b",
".I.J.b.k.c.i.h.e.e.f.e.e.K.F.r.s.C.L.M.D.s.s.N.O.e.j.H.j.c.k.w.b",
".P.J.b.H.i.h.e.f.f.f.e.Q.R.S.T.U.V.W.X.Y.Y.Z.N.0.1.2.i.i.j.c.k.w",
".y.J.b.c.i.h.e.e.f.f.f.3.4.5.6.7.8.9#.###a#b#c.s.O#d.j.i.j.c.c.w",
"#e.J#f.c.i.e.e.f.f.f#g#h.D#i#j#k#l#m###a#n#o#b.F.F#p.j.j.j.c.w.w",
".y.o.b.H.i.e.e.f.f.e#q.s.L#r#s.7#t#u#v#w#a#x#x#y.s#z.i.i.c.k.k.w",
".y#A.k.i.i.e.e.f.f.f#B.Y#C#D#E#F#y#G#H.9.Y#I#J.Y.0#K.i.i.j.k.c.k",
"#L#A.k.i.i.e.e.f.f.f.i#M#N#O#P#b#Q.V#R#S#I.Y#T#U.0#V#W.i.j.j#W.Q",
"#L#A.c.j.i.e.e.f.f.e.e#X#Y.A#Z#Y#Q.V#v#b#Q.9#b#0.D.r#1.c.c.k.l.l",
".w.G.e.f.e.e.f.f.e.e.e#2#3#4.W#o#5#a#6.V.Y#7#S#b#h#8#9a.a#aaabac",
".e.wadae.lafagagahai#Aah.hajakal.6.7aman.9#a#b#a.s.saoap.saqarai",
"asat.I.J.b.c.j.i.e.h.eau.f#Oavaw#vaxayaw###R#a#xazaAaBao#TaCaDaE",
"aFaG.y#A.k.d.j.iaH.i.haI.AaJaKaw.6aLaM##.V#R#a#vaNaOaPaQaRaSabaT",
".eaU.j.iaH.e.e.e.h#W.eaV.faWaXal#R#v.9#S.V#RaY#maZaea0afafaia1a2",
".f.e.f.f.f.f.f.f.f.e.f.A.Aaja3aMa4a5#.##.6.6aYaYa6.Q.Q.lagara1#L",
".f.f.f.f.f.f.e.f.e.e.e.e.f.2aka7aXa8a9b..6#Rb###babbbcbdbdbebfbg",
".e.j.kbh.zbibjbibkblbmbnbo.2bpambq#.brbsbtbu#.bvbwbxbybzbAbBbCbD",
"bEbEbFbFbGbGbHbIbJbKbLbGbMbNbObPbQalbRbRbva9bSbTbUbybVbWbXbYbZb0",
"bFb1b2bFb2b3bHbHbFb4b5b6b7.2b8amaMb.bRb.b.b.b9c.c#c#bBbXbXcacbcc",
"cdcebEb1bGcfcgcgchcicjckbL.fbp#scl#lcmcnbRcmcocpbWcqcqcrcsctb4cu",
"cvcwcfbGcxcybLczcAcBcCcDcEcFcGcHcIcJcKcLcMcmcNcOcOcscPcQcRcccScu",
"cTcUcVcWcXcwcVcYbVcZc0c1c2c3cGc4c5cKc6c6c6cKc7c8c9d.cRcRcRd#dadb",
"dcdddedfdgdhcZbVbVbVbAdicPdjdkdldmdnc6dodpdqdrc1d.d.dscudtdudvdb",
"dwdxdydzdAdBdCdDdEdEdFdGdHdIdJdKdL#mdMdNdOdPdQdRdtdtdtdSdSdTdUdV",
"dWdXdYdZd0d1bYd2d3d4d5d3.sd6d7d8d9e.c6e#eaeaebapecedeeefegeheiej",
"ekelemeneo#zefepeqeres.ueteuevew.zexeaeaeyeaezebeAeBemeCeDeEeFeG",
"eHeIeJeKeLeMeNeOePeQeaeReSeTd8eUeVeWeaeWeXdpebebeYeYeYeZeYebebe0",
".be1e2e3e4e5e6e5e7e8eYeQe9e9f..ef#faebeYeYfbeYe8eYeZfce8fcfdfeeY",
"fffgfhfifjevfkfae7flfme9fneWfofpe9e6fqeZeZflfleZeZeZfreZfcflflfl",
"fsftfjfjfufvfwe7flfxfyfzfAeYfBfneWfxfCfDeZeZeZeZfreZfrfEfEeZeZeZ"};
