/* XPM */
static const char *qt[]={
"32 32 3 1",
"# c #ff0000",
". c #ffff00",
"a c #ffffff",
"................................",
"................................",
"................................",
"................................",
"................................",
"................................",
"..........###...................",
".......##....###................",
".....##........###..............",
"....###.........###.............",
"...###..........###.....##......",
"...###.....a.....###....##......",
"...###...........###...#####....",
"..###............###...###......",
"..###............###...###......",
"..####...........###...###......",
"...###.......a...###...###......",
"...###...........##....###......",
"....###.........###....###......",
"....####........##.....###......",
"......###......##.......####....",
"........######...........###....",
"............###.................",
".............####...............",
"..............####..............",
"................####............",
"................................",
"................................",
"................................",
"................................",
"................................",
"................................"};
