/* XPM */
static const char *zhao[]={
"32 32 2 1",
"# c #ff0000",
". c #ffff00",
"................................",
"................................",
"................................",
"................................",
"................................",
"................................",
"..........##....................",
"..........##....................",
"..........##........##..........",
"..........##........##..........",
"..........#######..###..........",
"........#####...#..##...........",
"...........#....##.##...........",
"...........#.##..####...........",
"........######...###............",
"...######.##.....###............",
"..........##.....####...........",
".......##.#####.##.###..........",
".......##.##...##...##..........",
"......###.##...#....##..........",
"......##.###.##......#..........",
".....##...####..................",
"....##......#####...............",
"....#..........######...........",
".................########.......",
"....................###.........",
"................................",
"................................",
"................................",
"................................",
"................................",
"................................"};
