/* XPM */
const static char * setcolor_xpm[] = {
"16 16 11 1",
" 	c None",
".	c #C0C0C0",
"+	c #959595",
"@	c #2A2A2A",
"#	c #000000",
"$	c #555555",
"%	c #808080",
"&	c #404040",
"*	c #151515",
"=	c #6A6A6A",
"-	c #AAAAAA",
"................",
"................",
"......+@##$.....",
".....+#@%&#+....",
".....@*...#%....",
".....#&.........",
".....*#=-.......",
".....-@##$-.....",
".......+@#@.....",
".........@#.....",
"....#%...@*.....",
"....#$..%#=.....",
"....$#@@#&......",
".....%&$+.......",
"................",
"................"};
